<svg width="70" height="24" viewBox="0 0 70 24" fill="none" xmlns="http://www.w3.org/2000/svg">
<path d="M44.303 17.9795L41.303 13.4947H38.8788V17.9795H35.7576V3.94922H42.1818C43.8485 3.94922 45.1515 4.37346 46.0909 5.16134C47.0303 5.97952 47.4848 7.13104 47.4848 8.58559V8.61589C47.4848 9.7674 47.2121 10.6765 46.6667 11.4038C46.1212 12.1007 45.3939 12.6462 44.4848 12.9795L47.9091 18.0098H44.303V17.9795ZM44.3636 8.7371C44.3636 8.07043 44.1515 7.55528 43.7273 7.22195C43.303 6.88862 42.697 6.7068 41.9394 6.7068H38.8788V10.7371H42C42.7576 10.7371 43.3333 10.5553 43.7576 10.1916C44.1515 9.82801 44.3636 9.34316 44.3636 8.7371V8.7371Z" fill="#212123"/>
<path d="M49.6364 6.04026V3.31299H52.8485V6.04026H49.6364ZM49.697 17.9797V7.22208H52.7576V17.9797H49.697V17.9797Z" fill="#212123"/>
<path d="M61.5454 17.9804V16.8289C61.1818 17.2531 60.7272 17.5864 60.2121 17.8289C59.6969 18.0713 59.0606 18.1925 58.303 18.1925C57.7878 18.1925 57.303 18.1319 56.8787 17.9804C56.4242 17.8289 56.0303 17.6168 55.6969 17.344C55.3636 17.0713 55.0909 16.7077 54.909 16.3137C54.7272 15.9198 54.606 15.4349 54.606 14.8895V14.8592C54.606 14.2834 54.7272 13.7683 54.9393 13.344C55.1515 12.9198 55.4545 12.5561 55.8181 12.2834C56.1818 12.0107 56.6666 11.7986 57.1818 11.6471C57.6969 11.4955 58.303 11.4349 58.9394 11.4349C59.4848 11.4349 59.9697 11.4652 60.3636 11.5561C60.7575 11.6471 61.1818 11.738 61.5454 11.8895V11.6774C61.5454 11.041 61.3636 10.5561 60.9697 10.2228C60.5757 9.88947 60 9.70766 59.2424 9.70766C58.6666 9.70766 58.1212 9.76826 57.6969 9.85917C57.2424 9.95008 56.7878 10.1016 56.2727 10.2834L55.5151 7.95008C56.0909 7.70765 56.7272 7.49553 57.3636 7.31371C58 7.1622 58.7878 7.07129 59.6969 7.07129C61.3636 7.07129 62.5757 7.46523 63.3636 8.28341C64.1515 9.10159 64.5151 10.2531 64.5151 11.7077V17.9501H61.5454V17.9804ZM61.606 13.6471C61.3333 13.5258 61.0303 13.4349 60.7272 13.344C60.3939 13.2834 60.0606 13.2228 59.6666 13.2228C59 13.2228 58.4848 13.344 58.1212 13.6167C57.7575 13.8592 57.5454 14.2531 57.5454 14.7077V14.738C57.5454 15.1622 57.6969 15.4652 58 15.7077C58.303 15.9501 58.6969 16.041 59.2121 16.041C59.9394 16.041 60.5151 15.8592 60.9394 15.5258C61.3636 15.1925 61.606 14.7077 61.606 14.1622V13.6471V13.6471Z" fill="#212123"/>
<path d="M69.0303 20.4342C68.4546 20.9797 67.5758 21.2524 66.4546 21.2524C66.1819 21.2524 65.9394 21.2524 65.7273 21.2221C65.5455 21.1918 65.3334 21.1615 65.1212 21.1312V18.7675C65.3637 18.7978 65.5758 18.8282 65.7576 18.8282C66.0909 18.8282 66.3334 18.7372 66.5455 18.5554C66.7576 18.3736 66.8485 18.0403 66.8485 17.5857V7.22208H69.9091V17.7978C69.9091 19.01 69.6061 19.8888 69.0303 20.4342ZM66.7879 6.04026V3.31299H70V6.04026H66.7879Z" fill="#212123"/>
<path d="M7.36357 20.0999V14.4635L4.87872 11.9786L7.36357 9.49379V3.85742H24.5757V9.49379L27.0606 11.9786L24.5757 14.4635V20.0999H7.36357Z" fill="#212123"/>
<path d="M11.7878 11.9777C12.6363 12.1898 12.9393 12.6141 12.9393 13.5838V14.7353C12.9393 15.2505 13.909 15.1898 14.7272 15.1898V17.1595H12.8484C11.1211 17.1595 10.5454 16.705 10.5454 15.3414V13.402C10.5454 13.0989 10.4545 13.008 10.1817 13.008H9.63629V10.9777H10.1817C10.4545 10.9777 10.5454 10.8868 10.5454 10.5838V8.61408C10.5454 7.25044 11.1211 6.7959 12.8484 6.7959H14.7272V8.7656C13.9393 8.7656 12.9393 8.70499 12.9393 9.22014V10.3717C12.9393 11.3414 12.6363 11.7656 11.7878 11.9777Z" fill="white"/>
<path d="M18.9696 10.3722V9.22066C18.9696 8.70551 17.9999 8.76612 17.1818 8.76612V6.76611H19.0606C20.7878 6.76611 21.3636 7.22066 21.3636 8.5843V10.5237C21.3636 10.8267 21.4545 10.9176 21.7272 10.9176H22.2727V13.0085H21.7272C21.4545 13.0085 21.3636 13.0995 21.3636 13.4025V15.3419C21.3636 16.7055 20.7878 17.1601 19.0606 17.1601H17.1818V15.2207C17.9696 15.2207 18.9696 15.2813 18.9696 14.7661V13.5843C18.9696 12.6146 19.2727 12.1904 20.1212 11.9782C19.2727 11.7661 18.9696 11.3419 18.9696 10.3722Z" fill="white"/>
<path d="M28 23.5558H3.90909V15.8891L0 11.98L3.90909 8.07094V0.43457H28V8.10124L31.9091 12.0103L28 15.8891V23.5558ZM5.87879 21.5861H26.0606V15.0709L29.1515 11.98L26.0303 8.88912V2.40427H5.87879V8.91943L2.78788 11.98L5.87879 15.0709V21.5861Z" fill="#212123"/>
</svg>
