<svg width="82" height="29" viewBox="0 0 82 29" fill="none" xmlns="http://www.w3.org/2000/svg">
<path d="M0 16.5738L11.8926 22.3294V18.9662L4.02198 15.1523L11.8926 11.3383V7.9751L0 13.7307V16.5738Z" fill="black"/>
<path d="M13.0021 24.7571L16.1573 23.1968L17.6482 3.05225L14.493 4.57783L13.0021 24.7571Z" fill="black"/>
<path d="M70.0728 7.9751V11.3383L77.9434 15.1523L70.0728 18.9662V22.3294L82 16.5738V13.7307L70.0728 7.9751Z" fill="black"/>
<path d="M18.411 23.1968V22.7461C18.8964 22.7461 19.2778 22.7114 19.5899 22.6074C19.9019 22.5034 20.1446 22.33 20.318 22.122C20.4913 21.8793 20.5954 21.6019 20.6647 21.2205C20.734 20.8391 20.7687 20.3884 20.7687 19.8336V6.45013C20.7687 5.89537 20.734 5.44463 20.6647 5.06324C20.5954 4.68184 20.4913 4.40447 20.318 4.16176C20.1446 3.91905 19.9019 3.78036 19.5899 3.67635C19.2778 3.57233 18.8964 3.53766 18.411 3.53766V3.05225H25.3801C26.8364 3.05225 28.1539 3.12159 29.3328 3.29495C30.5116 3.43364 31.5171 3.74569 32.3493 4.16176C33.1814 4.57783 33.8055 5.16726 34.2562 5.89537C34.707 6.62349 34.915 7.55964 34.915 8.7385C34.915 10.1947 34.4296 11.3043 33.4241 11.9977C32.4533 12.7258 31.0317 13.1766 29.2288 13.3846C29.7835 13.4539 30.3036 13.662 30.789 13.9393C31.2744 14.2167 31.6558 14.6328 31.9332 15.1529L35.4351 21.2899C35.7125 21.7406 36.0592 22.122 36.5099 22.3647C36.9607 22.6421 37.4461 22.7461 37.9662 22.7461H38.3476V23.1968H34.811C34.0135 23.1968 33.2507 22.9888 32.6266 22.5381C31.9679 22.0873 31.4825 21.4979 31.1357 20.7351L29.4368 16.6438C29.0901 15.777 28.5353 15.1182 27.8072 14.6328C27.0791 14.1474 26.2469 13.87 25.3455 13.87V19.8683C25.3455 20.4231 25.3801 20.8738 25.4495 21.2552C25.5188 21.6366 25.6229 21.9486 25.7962 22.1567C25.9696 22.3994 26.2123 22.5381 26.5243 22.6421C26.8364 22.7461 27.2178 22.7808 27.7032 22.7808V23.2315H18.411V23.1968ZM25.3801 3.53766V13.1072C27.3218 13.1072 28.778 12.7952 29.7489 12.1364C30.7543 11.4776 31.2398 10.3334 31.2398 8.70383C31.2398 7.733 31.1357 6.90087 30.893 6.2421C30.6503 5.58332 30.3036 5.02857 29.8529 4.64717C29.4021 4.26578 28.778 3.95373 28.0152 3.78036C27.2871 3.607 26.3856 3.53766 25.3801 3.53766Z" fill="black"/>
<path d="M38.8677 23.196V22.7453C39.3531 22.7453 39.7345 22.7106 40.0466 22.5719C40.3586 22.4679 40.6013 22.2946 40.7747 22.0519C40.9481 21.8092 41.0521 21.5318 41.1214 21.1504C41.1908 20.769 41.2254 20.3182 41.2254 19.7635V13.8692C41.2254 13.4185 41.1214 13.0371 40.9481 12.7597C40.7747 12.4476 40.532 12.2396 40.2893 12.0662C40.0466 11.8929 39.7692 11.7889 39.4918 11.7195C39.2144 11.6502 39.0064 11.6155 38.8331 11.6155V11.0954L44.6927 8.56434C44.7273 8.52967 44.7967 8.52967 44.866 8.52967C44.9701 8.52967 45.0741 8.56434 45.1781 8.66836C45.2821 8.77237 45.3168 8.87639 45.3168 9.01508V19.7982C45.3168 20.9077 45.4901 21.6705 45.8022 22.0865C46.1142 22.5373 46.7383 22.7453 47.7092 22.7453V23.196H38.8677V23.196ZM43.0977 1.62988C43.7565 1.62988 44.3113 1.87259 44.762 2.32333C45.2128 2.77407 45.4555 3.3635 45.4555 3.9876C45.4555 4.64637 45.2128 5.2358 44.762 5.68654C44.3113 6.13728 43.7565 6.37999 43.0977 6.37999C42.439 6.37999 41.8496 6.13728 41.3988 5.68654C40.9481 5.2358 40.7053 4.64637 40.7053 3.9876C40.7053 3.32883 40.9481 2.77407 41.3988 2.32333C41.8496 1.87259 42.4043 1.62988 43.0977 1.62988Z" fill="black"/>
<path d="M56.7586 14.0778C56.6893 12.4482 56.4812 11.304 56.0651 10.6105C55.6838 9.91708 55.025 9.57036 54.1235 9.57036C53.6381 9.57036 53.222 9.67438 52.8753 9.88241C52.5286 10.0904 52.2512 10.3331 52.0085 10.6799C51.8005 10.9919 51.6271 11.3386 51.5231 11.7547C51.4191 12.1361 51.3497 12.5175 51.3497 12.8642C51.3497 13.1416 51.3844 13.419 51.4538 13.6617C51.5231 13.9044 51.6271 14.1124 51.8005 14.2858C51.6965 14.3898 51.6271 14.4245 51.6271 14.4592C51.5924 14.4938 51.5578 14.4938 51.5578 14.4938L48.784 12.0668C48.992 11.512 49.3387 11.0613 49.7895 10.6105C50.1709 10.2638 50.6909 9.95175 51.3844 9.6397C52.0432 9.32765 52.91 9.18896 54.0195 9.18896C54.9556 9.18896 55.7878 9.29298 56.5852 9.50102C57.348 9.6397 58.0068 10.0211 58.5962 10.5412C59.1857 11.0613 59.6364 11.7894 59.9485 12.7255C60.2605 13.6617 60.4339 14.8405 60.4339 16.2968V19.764C60.4339 20.8735 60.6072 21.6363 60.9193 22.0524C61.2313 22.5031 61.8901 22.7112 62.8609 22.7112V23.1619H58.9083C58.3535 23.1619 57.8681 22.9539 57.452 22.5725C57.036 22.1911 56.8279 21.7057 56.7933 21.1509C56.6199 21.3936 56.4119 21.671 56.1345 21.9484C55.8571 22.2257 55.5797 22.4685 55.2677 22.6765C54.9556 22.8845 54.5742 23.0579 54.1928 23.1966C53.8114 23.3353 53.3954 23.4046 52.9793 23.4046C52.4246 23.4046 51.9045 23.3353 51.3497 23.1619C50.795 23.0232 50.3095 22.7458 49.8588 22.4338C49.4081 22.0871 49.0613 21.671 48.784 21.1856C48.5066 20.7002 48.3679 20.0761 48.3679 19.3826C48.3679 18.5505 48.5759 17.857 48.992 17.3716C49.4081 16.8862 49.9282 16.4701 50.5523 16.1928C51.1764 15.9154 51.8698 15.6727 52.5633 15.534C53.2914 15.3953 53.9501 15.2566 54.5742 15.1526C55.1983 15.0486 55.7184 14.9099 56.1692 14.7365C56.5506 14.6325 56.7586 14.3898 56.7586 14.0778ZM52.0085 19.7987C52.0085 20.0414 52.0085 20.2841 52.0432 20.5961C52.0778 20.9082 52.1472 21.1856 52.3206 21.4283C52.4592 21.7057 52.6673 21.9137 52.9793 22.0871C53.2567 22.2604 53.6728 22.3298 54.1928 22.3298C54.5049 22.3298 54.8516 22.2604 55.1637 22.1217C55.4411 22.0177 55.7184 21.8444 55.9611 21.6363C56.2038 21.4283 56.4119 21.2203 56.5506 21.0122C56.6892 20.8042 56.7586 20.5961 56.7586 20.3881V15.1873C56.5159 15.3953 56.1345 15.6033 55.6144 15.742C55.0943 15.9154 54.5743 16.1234 54.0195 16.4355C53.4647 16.7129 53.014 17.1289 52.5979 17.649C52.2165 18.1344 52.0085 18.8625 52.0085 19.7987Z" fill="black"/>
<path d="M68.3044 1.52597C67.8536 1.07523 67.2642 0.83252 66.6054 0.83252C65.9466 0.83252 65.3919 1.07523 64.9065 1.52597C64.4557 1.97671 64.2477 2.53146 64.2477 3.19024C64.2477 3.88368 64.4557 4.43844 64.9065 4.88918C65.3919 5.33992 65.9466 5.58262 66.6054 5.58262C67.2642 5.58262 67.8189 5.33992 68.3044 4.88918C68.7898 4.43844 68.9978 3.88368 68.9978 3.19024C68.9978 2.53146 68.7551 1.97671 68.3044 1.52597ZM68.3044 8.1137C68.2003 8.00968 68.0963 7.97501 67.9923 7.97501C67.9576 7.97501 67.9229 8.00968 67.8883 8.00968C67.8536 8.04436 67.8536 8.04436 67.7843 8.04436L62.3754 10.2981V10.7835C62.5487 10.7835 62.7568 10.8181 63.0341 10.8875C63.3115 10.9568 63.5542 11.0955 63.7969 11.2342C64.0396 11.4076 64.2477 11.6503 64.4557 11.9277C64.6638 12.2397 64.7331 12.5864 64.7331 13.0718V21.3585H68.4084V8.46042C68.443 8.32173 68.4084 8.21772 68.3044 8.1137Z" fill="black"/>
<path d="M64.768 20.2134V24.6168C64.768 26.2117 64.1786 27.1132 62.965 27.3905C62.2716 27.5639 61.7862 27.4946 61.4741 27.2172C61.4048 27.1478 61.3354 27.0438 61.2661 26.8705C61.1967 26.6971 61.0927 26.5237 60.9887 26.3157C60.8153 26.073 60.746 25.8996 60.7113 25.7609C60.4686 25.3102 60.2259 24.9635 59.9832 24.7901C59.7058 24.5821 59.3938 24.4434 59.047 24.4087C58.7003 24.3741 58.3883 24.5127 58.1109 24.7554C57.8335 24.9635 57.6948 25.3102 57.6948 25.7609C57.7295 26.4197 58.0762 26.9745 58.7697 27.4599C59.7058 28.0146 60.85 28.292 62.2022 28.292C64.0052 28.292 65.5308 27.7026 66.779 26.4891C67.9232 25.3796 68.4779 23.8886 68.4779 21.9817V20.2134H64.768Z" fill="black"/>
</svg>
