<svg width="123" height="23" viewBox="0 0 123 23" fill="none" xmlns="http://www.w3.org/2000/svg">
<path d="M6.9231 17.8611V12.7418L4.58691 10.4849L6.9231 8.22803V3.10876H23.1054V8.22803L25.4417 10.4849L23.1054 12.7418V17.8611H6.9231Z" fill="#212123"/>
<path d="M11.0825 10.4841C11.8803 10.6768 12.1651 11.0621 12.1651 11.9429V12.9887C12.1651 13.4567 13.0768 13.4015 13.8461 13.4015V15.1905H12.0797C10.4557 15.1905 9.91447 14.7777 9.91447 13.5392V11.7777C9.91447 11.5024 9.82901 11.4199 9.57253 11.4199H9.05975V9.57586H9.57253C9.82901 9.57586 9.91447 9.4933 9.91447 9.21809V7.42908C9.91447 6.19055 10.4557 5.77771 12.0797 5.77771H13.8461V7.5667C13.1053 7.5667 12.1651 7.51165 12.1651 7.97954V9.02545C12.1651 9.90619 11.8803 10.2915 11.0825 10.4841Z" fill="white"/>
<path d="M17.8348 9.02586V7.97997C17.8348 7.51208 16.9231 7.56713 16.1539 7.56713V5.75061H17.9203C19.5442 5.75061 20.0855 6.16346 20.0855 7.40199V9.16346C20.0855 9.43867 20.171 9.52123 20.4274 9.52123H20.9402V11.4203H20.4274C20.171 11.4203 20.0855 11.503 20.0855 11.7782V13.5396C20.0855 14.7781 19.5442 15.191 17.9203 15.191H16.1539V13.4295C16.8946 13.4295 17.8348 13.4846 17.8348 13.0167V11.9433C17.8348 11.0625 18.1197 10.6773 18.9175 10.4845C18.1197 10.2919 17.8348 9.9066 17.8348 9.02586Z" fill="white"/>
<path d="M26.3248 21H3.67521V14.0367L0 10.4862L3.67521 6.93578V0H26.3248V6.9633L30 10.5137L26.3248 14.0367V21ZM5.52707 19.211H24.5014V13.2935L27.4074 10.4862L24.4729 7.6789V1.78899H5.52707V7.70643L2.62108 10.4862L5.52707 13.2935V19.211Z" fill="#212123"/>
<path d="M60.5486 18.9612L56.8453 13.2199H53.8529V18.9612H50V1H57.9301C59.9875 1 61.596 1.5431 62.7556 2.55173C63.9152 3.59914 64.4762 5.07329 64.4762 6.93536V6.97415C64.4762 8.44829 64.1396 9.61209 63.4664 10.5432C62.793 11.4353 61.8952 12.1337 60.773 12.5603L65 19H60.5486V18.9612ZM60.6234 7.12932C60.6234 6.27587 60.3616 5.61639 59.8379 5.18967C59.3142 4.76295 58.5661 4.53018 57.6309 4.53018H53.8529V9.68967H57.7057C58.6409 9.68967 59.3516 9.45694 59.8753 8.99134C60.3616 8.52588 60.6234 7.90519 60.6234 7.12932Z" fill="#212123"/>
<path d="M67 3.53304V0H71V3.53304H67ZM67.0755 19V5.06403H70.8868V19H67.0755Z" fill="#212123"/>
<path d="M82.104 18.733V17.2834C81.627 17.8174 81.0306 18.237 80.3548 18.5423C79.6789 18.8474 78.8441 19 77.8502 19C77.1743 19 76.5383 18.9237 75.9816 18.733C75.3853 18.5423 74.8686 18.2753 74.4312 17.9319C73.9939 17.5886 73.6362 17.1309 73.3975 16.6349C73.159 16.139 73 15.5286 73 14.842V14.8039C73 14.079 73.159 13.4306 73.4373 12.8964C73.7157 12.3624 74.1132 11.9046 74.5902 11.5613C75.0673 11.218 75.7034 10.951 76.3793 10.7603C77.055 10.5694 77.8502 10.4932 78.6851 10.4932C79.4006 10.4932 80.0368 10.5313 80.5535 10.6457C81.0703 10.7603 81.627 10.8747 82.104 11.0654V10.7984C82.104 9.99729 81.8655 9.38687 81.3487 8.9673C80.8318 8.54768 80.0765 8.31881 79.0826 8.31881C78.3272 8.31881 77.6117 8.3951 77.055 8.50954C76.4588 8.62398 75.8624 8.81472 75.1866 9.04358L74.1927 6.10627C74.9481 5.80109 75.7829 5.53406 76.6178 5.30517C77.4527 5.11444 78.4862 5 79.6789 5C81.8655 5 83.4557 5.49591 84.4893 6.52588C85.523 7.55586 86 9.00544 86 10.8366V18.6949H82.104V18.733ZM82.1835 13.278C81.8257 13.1253 81.4282 13.0109 81.0306 12.8964C80.5933 12.8202 80.156 12.7439 79.6391 12.7439C78.7646 12.7439 78.0887 12.8964 77.6117 13.2397C77.1345 13.545 76.8563 14.0409 76.8563 14.6131V14.6513C76.8563 15.1853 77.055 15.5667 77.4527 15.872C77.8502 16.1771 78.367 16.2916 79.0429 16.2916C79.997 16.2916 80.7523 16.0627 81.3089 15.643C81.8655 15.2234 82.1835 14.6131 82.1835 13.9264V13.278Z" fill="#212123"/>
<path d="M90.8074 21.951C90.0994 22.6504 89.0187 23 87.6398 23C87.3045 23 87.0062 23 86.7454 22.9612C86.5218 22.9223 86.261 22.8835 86 22.8446V19.8141C86.2982 19.853 86.5591 19.8919 86.7826 19.8919C87.1925 19.8919 87.4908 19.7753 87.7516 19.5422C88.0125 19.3091 88.1243 18.8818 88.1243 18.2989V5.01182H91.8882V18.5709C91.8882 20.125 91.5156 21.2517 90.8074 21.951ZM88.0497 3.49662V0H92V3.49662H88.0497Z" fill="#212123"/>
<path d="M108 2V6.45168L117.898 11.5001L108 16.5483V21L123 13.3816V9.61837L108 2Z" fill="black"/>
<path d="M94.2807 21.098L98.3427 20.7011L106.113 1.64877L102.061 2.01201L94.2807 21.098Z" fill="black"/>
<path d="M32 12.3816L47 20V15.5483L37.0729 10.5001L47 5.45168V1L32 8.61837V12.3816Z" fill="black"/>
</svg>
