<svg width="70" height="24" viewBox="0 0 70 24" fill="none" xmlns="http://www.w3.org/2000/svg">
<path d="M44.303 18.147L41.303 13.6622H38.8788V18.147H35.7576V4.1167H42.1818C43.8485 4.1167 45.1515 4.54094 46.0909 5.32882C47.0303 6.147 47.4848 7.29852 47.4848 8.75307V8.78337C47.4848 9.93488 47.2121 10.844 46.6667 11.5712C46.1212 12.2682 45.3939 12.8137 44.4848 13.147L47.9091 18.1773H44.303V18.147ZM44.3636 8.90458C44.3636 8.23791 44.1515 7.72276 43.7273 7.38943C43.303 7.0561 42.697 6.87428 41.9394 6.87428H38.8788V10.9046H42C42.7576 10.9046 43.3333 10.7228 43.7576 10.3591C44.1515 9.99549 44.3636 9.51064 44.3636 8.90458V8.90458Z" fill="white"/>
<path d="M49.6364 6.20774V3.48047H52.8485V6.20774H49.6364ZM49.697 18.1471V7.38956H52.7576V18.1471H49.697V18.1471Z" fill="white"/>
<path d="M61.5454 18.1479V16.9964C61.1818 17.4206 60.7272 17.7539 60.2121 17.9964C59.6969 18.2388 59.0606 18.36 58.303 18.36C57.7878 18.36 57.303 18.2994 56.8787 18.1479C56.4242 17.9964 56.0303 17.7842 55.6969 17.5115C55.3636 17.2388 55.0909 16.8751 54.909 16.4812C54.7272 16.0873 54.606 15.6024 54.606 15.057V15.0267C54.606 14.4509 54.7272 13.9357 54.9393 13.5115C55.1515 13.0873 55.4545 12.7236 55.8181 12.4509C56.1818 12.1782 56.6666 11.966 57.1818 11.8145C57.6969 11.663 58.303 11.6024 58.9394 11.6024C59.4848 11.6024 59.9697 11.6327 60.3636 11.7236C60.7575 11.8145 61.1818 11.9054 61.5454 12.057V11.8448C61.5454 11.2085 61.3636 10.7236 60.9697 10.3903C60.5757 10.057 60 9.87514 59.2424 9.87514C58.6666 9.87514 58.1212 9.93574 57.6969 10.0267C57.2424 10.1176 56.7878 10.2691 56.2727 10.4509L55.5151 8.11756C56.0909 7.87513 56.7272 7.66301 57.3636 7.48119C58 7.32968 58.7878 7.23877 59.6969 7.23877C61.3636 7.23877 62.5757 7.63271 63.3636 8.45089C64.1515 9.26907 64.5151 10.4206 64.5151 11.8751V18.1176H61.5454V18.1479ZM61.606 13.8145C61.3333 13.6933 61.0303 13.6024 60.7272 13.5115C60.3939 13.4509 60.0606 13.3903 59.6666 13.3903C59 13.3903 58.4848 13.5115 58.1212 13.7842C57.7575 14.0267 57.5454 14.4206 57.5454 14.8751V14.9054C57.5454 15.3297 57.6969 15.6327 58 15.8751C58.303 16.1176 58.6969 16.2085 59.2121 16.2085C59.9394 16.2085 60.5151 16.0267 60.9394 15.6933C61.3636 15.36 61.606 14.8751 61.606 14.3297V13.8145V13.8145Z" fill="white"/>
<path d="M69.0303 20.6017C68.4546 21.1471 67.5758 21.4199 66.4546 21.4199C66.1819 21.4199 65.9394 21.4199 65.7273 21.3896C65.5455 21.3593 65.3334 21.329 65.1212 21.2987V18.935C65.3637 18.9653 65.5758 18.9956 65.7576 18.9956C66.0909 18.9956 66.3334 18.9047 66.5455 18.7229C66.7576 18.5411 66.8485 18.2078 66.8485 17.7532V7.38956H69.9091V17.9653C69.9091 19.1775 69.6061 20.0562 69.0303 20.6017ZM66.7879 6.20774V3.48047H70V6.20774H66.7879Z" fill="white"/>
<path fill-rule="evenodd" clip-rule="evenodd" d="M7.36357 20.2673V14.631L4.87872 12.1461L7.36357 9.66127V4.0249H24.5757V9.66127L27.0606 12.1461L24.5757 14.631V20.2673H7.36357ZM11.7878 12.1452C12.6363 12.3573 12.9393 12.7816 12.9393 13.7513V14.9028C12.9393 15.3691 13.734 15.3636 14.4915 15.3584C14.5708 15.3579 14.6497 15.3573 14.7272 15.3573V17.327H12.8484C11.1211 17.327 10.5454 16.8725 10.5454 15.5088V13.5694C10.5454 13.2664 10.4545 13.1755 10.1817 13.1755H9.63629V11.1452H10.1817C10.4545 11.1452 10.5454 11.0543 10.5454 10.7513V8.78156C10.5454 7.41792 11.1211 6.96338 12.8484 6.96338H14.7272V8.93308C14.653 8.93308 14.577 8.93254 14.5001 8.932H14.5C13.7599 8.92677 12.9393 8.92097 12.9393 9.38762V10.5391C12.9393 11.5088 12.6363 11.9331 11.7878 12.1452ZM18.9696 9.38814V10.5397C18.9696 11.5094 19.2727 11.9336 20.1212 12.1457C19.2727 12.3578 18.9696 12.7821 18.9696 13.7518V14.9336C18.9696 15.4003 18.1491 15.3945 17.4089 15.3892C17.332 15.3887 17.2559 15.3881 17.1818 15.3881V17.3275H19.0606C20.7878 17.3275 21.3636 16.873 21.3636 15.5094V13.57C21.3636 13.2669 21.4545 13.176 21.7272 13.176H22.2727V11.0851H21.7272C21.4545 11.0851 21.3636 10.9942 21.3636 10.6912V8.75178C21.3636 7.38814 20.7878 6.93359 19.0606 6.93359H17.1818V8.9336C17.2593 8.9336 17.3382 8.93305 17.4175 8.9325C18.175 8.92728 18.9696 8.9218 18.9696 9.38814Z" fill="white"/>
<path d="M28 23.7233H3.90909V16.0566L0 12.1475L3.90909 8.23842V0.602051H28V8.26872L31.9091 12.1778L28 16.0566V23.7233ZM5.87879 21.7536H26.0606V15.2384L29.1515 12.1475L26.0303 9.0566V2.57175H5.87879V9.08691L2.78788 12.1475L5.87879 15.2384V21.7536Z" fill="white"/>
</svg>
