<svg width="82" height="28" viewBox="0 0 82 28" fill="none" xmlns="http://www.w3.org/2000/svg">
<path d="M0 15.7413L11.8926 21.4969V18.1337L4.02198 14.3197L11.8926 10.5058V7.14258L0 12.8982V15.7413Z" fill="white"/>
<path d="M13.0021 23.9246L16.1573 22.3643L17.6482 2.21973L14.493 3.74531L13.0021 23.9246Z" fill="white"/>
<path d="M70.0728 7.14258V10.5058L77.9434 14.3197L70.0728 18.1337V21.4969L82 15.7413V12.8982L70.0728 7.14258Z" fill="white"/>
<path d="M18.411 22.3643V21.9136C18.8964 21.9136 19.2778 21.8789 19.5899 21.7749C19.9019 21.6709 20.1446 21.4975 20.318 21.2895C20.4913 21.0468 20.5954 20.7694 20.6647 20.388C20.734 20.0066 20.7687 19.5559 20.7687 19.0011V5.61761C20.7687 5.06285 20.734 4.61211 20.6647 4.23072C20.5954 3.84932 20.4913 3.57195 20.318 3.32924C20.1446 3.08653 19.9019 2.94784 19.5899 2.84383C19.2778 2.73981 18.8964 2.70514 18.411 2.70514V2.21973H25.3801C26.8364 2.21973 28.1539 2.28907 29.3328 2.46243C30.5116 2.60112 31.5171 2.91317 32.3493 3.32924C33.1814 3.74531 33.8055 4.33474 34.2562 5.06285C34.707 5.79097 34.915 6.72712 34.915 7.90598C34.915 9.36222 34.4296 10.4717 33.4241 11.1652C32.4533 11.8933 31.0317 12.344 29.2288 12.5521C29.7835 12.6214 30.3036 12.8294 30.789 13.1068C31.2744 13.3842 31.6558 13.8003 31.9332 14.3204L35.4351 20.4574C35.7125 20.9081 36.0592 21.2895 36.5099 21.5322C36.9607 21.8096 37.4461 21.9136 37.9662 21.9136H38.3476V22.3643H34.811C34.0135 22.3643 33.2507 22.1563 32.6266 21.7056C31.9679 21.2548 31.4825 20.6654 31.1357 19.9026L29.4368 15.8113C29.0901 14.9445 28.5353 14.2857 27.8072 13.8003C27.0791 13.3149 26.2469 13.0375 25.3455 13.0375V19.0358C25.3455 19.5905 25.3801 20.0413 25.4495 20.4227C25.5188 20.8041 25.6229 21.1161 25.7962 21.3242C25.9696 21.5669 26.2123 21.7056 26.5243 21.8096C26.8364 21.9136 27.2178 21.9483 27.7032 21.9483V22.399H18.411V22.3643ZM25.3801 2.70514V12.2747C27.3218 12.2747 28.778 11.9626 29.7489 11.3039C30.7543 10.6451 31.2398 9.50091 31.2398 7.87131C31.2398 6.90049 31.1357 6.06835 30.893 5.40958C30.6503 4.7508 30.3036 4.19605 29.8529 3.81465C29.4021 3.43326 28.778 3.12121 28.0152 2.94784C27.2871 2.77448 26.3856 2.70514 25.3801 2.70514Z" fill="white"/>
<path d="M38.8677 22.3635V21.9128C39.3531 21.9128 39.7345 21.8781 40.0466 21.7394C40.3586 21.6354 40.6013 21.462 40.7747 21.2193C40.9481 20.9766 41.0521 20.6993 41.1214 20.3179C41.1908 19.9365 41.2254 19.4857 41.2254 18.931V13.0367C41.2254 12.5859 41.1214 12.2045 40.9481 11.9272C40.7747 11.6151 40.532 11.4071 40.2893 11.2337C40.0466 11.0604 39.7692 10.9563 39.4918 10.887C39.2144 10.8177 39.0064 10.783 38.8331 10.783V10.2629L44.6927 7.73182C44.7273 7.69715 44.7967 7.69715 44.866 7.69715C44.9701 7.69715 45.0741 7.73182 45.1781 7.83584C45.2821 7.93986 45.3168 8.04387 45.3168 8.18256V18.9656C45.3168 20.0752 45.4901 20.8379 45.8022 21.254C46.1142 21.7048 46.7383 21.9128 47.7092 21.9128V22.3635H38.8677V22.3635ZM43.0977 0.797363C43.7565 0.797363 44.3113 1.04007 44.762 1.49081C45.2128 1.94155 45.4555 2.53098 45.4555 3.15508C45.4555 3.81385 45.2128 4.40328 44.762 4.85402C44.3113 5.30476 43.7565 5.54747 43.0977 5.54747C42.439 5.54747 41.8496 5.30476 41.3988 4.85402C40.9481 4.40328 40.7053 3.81385 40.7053 3.15508C40.7053 2.49631 40.9481 1.94155 41.3988 1.49081C41.8496 1.04007 42.4043 0.797363 43.0977 0.797363Z" fill="white"/>
<path d="M56.7586 13.2452C56.6893 11.6156 56.4812 10.4715 56.0651 9.77801C55.6838 9.08456 55.025 8.73784 54.1235 8.73784C53.6381 8.73784 53.222 8.84186 52.8753 9.04989C52.5286 9.25792 52.2512 9.50063 52.0085 9.84735C51.8005 10.1594 51.6271 10.5061 51.5231 10.9222C51.4191 11.3036 51.3497 11.685 51.3497 12.0317C51.3497 12.3091 51.3844 12.5865 51.4538 12.8292C51.5231 13.0719 51.6271 13.2799 51.8005 13.4533C51.6965 13.5573 51.6271 13.592 51.6271 13.6266C51.5924 13.6613 51.5578 13.6613 51.5578 13.6613L48.784 11.2342C48.992 10.6795 49.3387 10.2287 49.7895 9.77801C50.1709 9.43129 50.6909 9.11924 51.3844 8.80718C52.0432 8.49513 52.91 8.35645 54.0195 8.35645C54.9556 8.35645 55.7878 8.46046 56.5852 8.6685C57.348 8.80718 58.0068 9.18858 58.5962 9.70866C59.1857 10.2287 59.6364 10.9569 59.9485 11.893C60.2605 12.8292 60.4339 14.008 60.4339 15.4643V18.9315C60.4339 20.041 60.6072 20.8038 60.9193 21.2199C61.2313 21.6706 61.8901 21.8786 62.8609 21.8786V22.3294H58.9083C58.3535 22.3294 57.8681 22.1213 57.452 21.7399C57.036 21.3586 56.8279 20.8731 56.7933 20.3184C56.6199 20.5611 56.4119 20.8385 56.1345 21.1158C55.8571 21.3932 55.5797 21.6359 55.2677 21.844C54.9556 22.052 54.5742 22.2254 54.1928 22.3641C53.8114 22.5027 53.3954 22.5721 52.9793 22.5721C52.4246 22.5721 51.9045 22.5027 51.3497 22.3294C50.795 22.1907 50.3095 21.9133 49.8588 21.6013C49.4081 21.2545 49.0613 20.8385 48.784 20.3531C48.5066 19.8676 48.3679 19.2435 48.3679 18.5501C48.3679 17.718 48.5759 17.0245 48.992 16.5391C49.4081 16.0537 49.9282 15.6376 50.5523 15.3602C51.1764 15.0829 51.8698 14.8402 52.5633 14.7015C53.2914 14.5628 53.9501 14.4241 54.5742 14.3201C55.1983 14.2161 55.7184 14.0774 56.1692 13.904C56.5506 13.8 56.7586 13.5573 56.7586 13.2452ZM52.0085 18.9662C52.0085 19.2089 52.0085 19.4516 52.0432 19.7636C52.0778 20.0757 52.1472 20.3531 52.3206 20.5958C52.4592 20.8731 52.6673 21.0812 52.9793 21.2545C53.2567 21.4279 53.6728 21.4972 54.1928 21.4972C54.5049 21.4972 54.8516 21.4279 55.1637 21.2892C55.4411 21.1852 55.7184 21.0118 55.9611 20.8038C56.2038 20.5958 56.4119 20.3877 56.5506 20.1797C56.6892 19.9717 56.7586 19.7636 56.7586 19.5556V14.3548C56.5159 14.5628 56.1345 14.7708 55.6144 14.9095C55.0943 15.0829 54.5743 15.2909 54.0195 15.603C53.4647 15.8803 53.014 16.2964 52.5979 16.8165C52.2165 17.3019 52.0085 18.03 52.0085 18.9662Z" fill="white"/>
<path d="M68.3044 0.693446C67.8536 0.242706 67.2642 0 66.6054 0C65.9466 0 65.3919 0.242706 64.9065 0.693446C64.4557 1.14419 64.2477 1.69894 64.2477 2.35772C64.2477 3.05116 64.4557 3.60592 64.9065 4.05666C65.3919 4.5074 65.9466 4.7501 66.6054 4.7501C67.2642 4.7501 67.8189 4.5074 68.3044 4.05666C68.7898 3.60592 68.9978 3.05116 68.9978 2.35772C68.9978 1.69894 68.7551 1.14419 68.3044 0.693446ZM68.3044 7.28118C68.2003 7.17716 68.0963 7.14249 67.9923 7.14249C67.9576 7.14249 67.9229 7.17716 67.8883 7.17716C67.8536 7.21184 67.8536 7.21184 67.7843 7.21184L62.3754 9.46553V9.95095C62.5487 9.95095 62.7568 9.98562 63.0341 10.055C63.3115 10.1243 63.5542 10.263 63.7969 10.4017C64.0396 10.575 64.2477 10.8178 64.4557 11.0951C64.6638 11.4072 64.7331 11.7539 64.7331 12.2393V20.526H68.4084V7.6279C68.443 7.48921 68.4084 7.3852 68.3044 7.28118Z" fill="white"/>
<path d="M64.768 19.3809V23.7842C64.768 25.3792 64.1786 26.2806 62.965 26.558C62.2716 26.7314 61.7862 26.662 61.4741 26.3847C61.4048 26.3153 61.3354 26.2113 61.2661 26.0379C61.1967 25.8646 61.0927 25.6912 60.9887 25.4832C60.8153 25.2405 60.746 25.0671 60.7113 24.9284C60.4686 24.4777 60.2259 24.131 59.9832 23.9576C59.7058 23.7496 59.3938 23.6109 59.047 23.5762C58.7003 23.5415 58.3883 23.6802 58.1109 23.9229C57.8335 24.131 57.6948 24.4777 57.6948 24.9284C57.7295 25.5872 58.0762 26.142 58.7697 26.6274C59.7058 27.1821 60.85 27.4595 62.2022 27.4595C64.0052 27.4595 65.5308 26.8701 66.779 25.6565C67.9232 24.547 68.4779 23.0561 68.4779 21.1491V19.3809H64.768Z" fill="white"/>
</svg>
