<svg width="125" height="23" viewBox="0 0 125 23" fill="none" xmlns="http://www.w3.org/2000/svg">
<path fill-rule="evenodd" clip-rule="evenodd" d="M6.59922 18.5286V13.6286L4.42871 11.4684L6.59922 9.30813V4.40808H21.634V9.30813L23.8045 11.4684L21.634 13.6286V18.5286H6.59922ZM10.4638 11.4676C11.2049 11.652 11.4696 12.0208 11.4696 12.8639V13.8649C11.4696 14.2703 12.1638 14.2655 12.8254 14.261C12.8947 14.2606 12.9636 14.2601 13.0313 14.2601V15.9724H11.3902C9.88141 15.9724 9.37853 15.5773 9.37853 14.3918V12.7057C9.37853 12.4423 9.29913 12.3633 9.06084 12.3633H8.58443V10.5982H9.06084C9.29913 10.5982 9.37853 10.5192 9.37853 10.2558V8.54335C9.37853 7.35785 9.88141 6.96269 11.3902 6.96269H13.0313V8.67507C12.9665 8.67507 12.9001 8.6746 12.833 8.67413C12.1865 8.66959 11.4696 8.66454 11.4696 9.07023V10.0713C11.4696 10.9143 11.2049 11.2832 10.4638 11.4676ZM16.737 9.07068V10.0718C16.737 10.9148 17.0018 11.2836 17.743 11.468C17.0018 11.6524 16.737 12.0213 16.737 12.8643V13.8917C16.737 14.2974 16.0203 14.2924 15.3738 14.2878C15.3066 14.2874 15.2401 14.2868 15.1754 14.2868V15.9729H16.8165C18.3252 15.9729 18.8282 15.5777 18.8282 14.3923V12.7062C18.8282 12.4427 18.9076 12.3637 19.1458 12.3637H19.6223V10.546H19.1458C18.9076 10.546 18.8282 10.4669 18.8282 10.2035V8.51746C18.8282 7.33196 18.3252 6.93679 16.8165 6.93679H15.1754V8.67552C15.2431 8.67552 15.312 8.67505 15.3813 8.67457C16.043 8.67003 16.737 8.66527 16.737 9.07068Z" fill="white"/>
<path d="M24.4571 22.3048H3.41447V15.1524L0 11.5056L3.41447 7.85871V0.734619H24.4571V7.88698L27.8716 11.5338L24.4571 15.1524V22.3048ZM5.13494 20.4672H22.7631V14.3891L25.4629 11.5056L22.7367 8.62201V2.57218H5.13494V8.65028L2.43513 11.5056L5.13494 14.3891V20.4672Z" fill="white"/>
<path d="M60.9354 18.8923L57.175 13.2635H54.1363V18.8923H50.2239V1.2832H58.2765C60.3657 1.2832 61.999 1.81566 63.1765 2.80451C64.354 3.83139 64.9237 5.27664 64.9237 7.10221V7.14024C64.9237 8.58547 64.5819 9.72646 63.8982 10.6393C63.2145 11.5139 62.3028 12.1986 61.1633 12.6169L65.4556 18.9303H60.9354V18.8923ZM61.0114 7.29237C61.0114 6.45564 60.7455 5.80909 60.2138 5.39073C59.6819 4.97238 58.9223 4.74418 57.9727 4.74418H54.1363V9.80252H58.0486C58.9983 9.80252 59.7199 9.57435 60.2518 9.11788C60.7455 8.66154 61.0114 8.05302 61.0114 7.29237Z" fill="white"/>
<path d="M67.6205 3.90756V0.484619H71.6468V3.90756H67.6205ZM67.6965 18.8925V5.39083H71.5329V18.8925H67.6965Z" fill="white"/>
<path d="M82.5483 18.8933V17.4481C82.0925 17.9805 81.5227 18.3988 80.877 18.7032C80.2312 19.0074 79.4337 19.1595 78.484 19.1595C77.8382 19.1595 77.2305 19.0835 76.6987 18.8933C76.129 18.7032 75.6352 18.437 75.2173 18.0946C74.7995 17.7523 74.4577 17.296 74.2297 16.8015C74.0018 16.3071 73.8499 15.6985 73.8499 15.014V14.976C73.8499 14.2533 74.0018 13.6068 74.2677 13.0743C74.5337 12.5419 74.9135 12.0854 75.3693 11.7431C75.8251 11.4009 76.4328 11.1347 77.0786 10.9445C77.7243 10.7543 78.484 10.6782 79.2817 10.6782C79.9654 10.6782 80.5732 10.7162 81.0669 10.8303C81.5607 10.9445 82.0925 11.0586 82.5483 11.2488V10.9826C82.5483 10.1838 82.3204 9.57525 81.8267 9.15693C81.3328 8.73857 80.6112 8.51039 79.6615 8.51039C78.9398 8.51039 78.2561 8.58645 77.7243 8.70054C77.1546 8.81464 76.5848 9.00481 75.9391 9.23299L74.9894 6.30449C75.7112 6.00022 76.5088 5.73399 77.3065 5.50579C78.1042 5.31564 79.0917 5.20154 80.2312 5.20154C82.3204 5.20154 83.8397 5.69596 84.8274 6.72284C85.815 7.74972 86.2707 9.19496 86.2707 11.0206V18.8553H82.5483V18.8933ZM82.6242 13.4547C82.2824 13.3025 81.9026 13.1884 81.5227 13.0743C81.1049 12.9982 80.6871 12.9222 80.1933 12.9222C79.3577 12.9222 78.7119 13.0743 78.2561 13.4165C77.8002 13.7209 77.5344 14.2153 77.5344 14.7858V14.8239C77.5344 15.3563 77.7243 15.7365 78.1042 16.0409C78.484 16.3451 78.9778 16.4592 79.6236 16.4592C80.5352 16.4592 81.2568 16.231 81.7887 15.8126C82.3204 15.3943 82.6242 14.7858 82.6242 14.1012V13.4547Z" fill="white"/>
<path d="M91.9304 21.9731C91.2087 22.6577 90.1072 23 88.7018 23C88.36 23 88.056 23 87.7901 22.9619C87.5622 22.9239 87.2964 22.8859 87.0304 22.8479V19.8812C87.3344 19.9193 87.6002 19.9574 87.8281 19.9574C88.2459 19.9574 88.5499 19.8432 88.8157 19.615C89.0816 19.3869 89.1955 18.9685 89.1955 18.398V5.39083H93.0319V18.6642C93.0319 20.1856 92.6521 21.2886 91.9304 21.9731ZM89.1196 3.90756V0.484619H93.1459V3.90756H89.1196Z" fill="white"/>
<path d="M108.871 0.999957V5.68594L119.514 11L108.871 16.314V21L125 12.9806V9.0193L108.871 0.999957Z" fill="#FFFBFB"/>
<path d="M95.0068 21.098L99.0984 20.7011L106.925 1.64877L102.844 2.01201L95.0068 21.098Z" fill="#FFFBFB"/>
<path d="M30.2419 12.3816L46.371 20V15.5483L35.6966 10.5001L46.371 5.45168V1L30.2419 8.61837V12.3816Z" fill="#FFFBFB"/>
</svg>
